<svg  viewBox="0 0 101 158" fill="none" xmlns="http://www.w3.org/2000/svg">
<path d="M74.4207 123.632C87.6997 131.298 87.7557 143.721 74.5637 151.388C61.3847 159.047 39.9377 159.055 26.6587 151.388C13.3937 143.729 13.3237 131.299 26.5027 123.64C39.6957 115.973 61.1557 115.973 74.4207 123.632Z" fill="#EAEAEA"/>
<path d="M50.543 142.274L59.447 137.128L59.529 81.1061L50.625 86.2521L50.543 142.274Z" fill="#8B4929"/>
<path d="M41.9424 81.3871L41.8594 137.409L50.5424 142.274L50.6244 86.2521L41.9424 81.3871Z" fill="#A56C39"/>
<path d="M100.752 37.458C100.752 17.328 80.5 -2 64.3028 1.00905C57.8588 1.00905 51.8168 2.69505 46.5648 5.62905C42.9528 3.62105 38.8558 2.37905 34.4298 2.37905C14 -1 9.29077 13.634 9.29077 27.519C9.29077 30.55 9.91278 33.418 10.8948 36.108C4.70178 40.687 0.634766 47.981 0.634766 56.275C0.634766 70.159 11.8898 81.4151 25.7748 81.4151C28.5318 81.4151 31.1368 80.8621 33.6168 80.0421C36.9538 88.5221 45.1718 94.5451 54.8368 94.5451C64.1308 94.5451 72.0918 88.9731 75.6598 81.0071C76.3368 81.0671 76.9888 81.2111 77.6808 81.2111C90.2968 81.2111 100.524 70.983 100.524 58.3671C100.524 55.1931 99.8718 52.1721 98.7018 49.425C100.008 45.67 100.752 41.656 100.752 37.458Z" fill="#799E15"/>
<path d="M100.752 37.4581C100.752 24.9731 94.4593 13.9741 84.8893 7.40405C86.7063 11.7371 87.7193 16.4891 87.7193 21.4811C87.7193 25.6791 86.9733 29.6931 85.6683 33.4461C86.8373 36.1931 87.4903 39.2141 87.4903 42.3881C87.4903 55.0041 77.2633 65.232 64.6473 65.232C63.9543 65.232 63.3033 65.0881 62.6263 65.0281C59.0593 72.9941 51.0973 78.566 41.8053 78.566C32.1383 78.566 23.9213 72.5431 20.5853 64.0631C18.1033 64.8831 15.4983 65.4361 12.7413 65.4361C8.7073 65.4361 4.94931 64.397 1.57031 62.708C4.42731 73.453 14.1293 81.4121 25.7753 81.4121C28.5313 81.4121 31.1373 80.8591 33.6173 80.0391C36.9543 88.5191 45.1723 94.5421 54.8363 94.5421C64.1303 94.5421 72.0913 88.9701 75.6603 81.0041C76.3363 81.064 76.9883 81.208 77.6803 81.208C90.2973 81.208 100.523 70.979 100.523 58.3641C100.523 55.1901 99.8723 52.1691 98.7013 49.4221C100.007 45.6701 100.752 41.6561 100.752 37.4581Z" fill="#5E7E12"/>
</svg>
