<svg viewBox="0 0 171 305" fill="none" xmlns="http://www.w3.org/2000/svg">
<path opacity="0.2" d="M85.5 305C115.6 305 140 290.896 140 273.5C140 256.103 115.6 242 85.5 242C55.4006 242 31 256.103 31 273.5C31 290.896 55.4006 305 85.5 305Z" fill="#8C6239"/>
<path d="M95.9991 273.828C96.0343 275.414 95.0104 276.999 92.9217 278.221C88.8227 280.593 82.1674 280.593 78.0683 278.221C75.9796 276.999 74.9555 275.414 75.0015 273.828C74.9907 273.828 76.6254 203.645 76.6254 203.645L78.2491 18.5966C78.2707 17.9342 78.7141 17.2854 79.5788 16.7696C81.3514 15.7435 89.6387 15.7435 91.4113 16.7696C92.2867 17.2827 92.7164 17.9342 92.7407 18.5966L94.3646 203.645L95.9991 273.828Z" fill="#874A0E"/>
<path d="M166.941 81.4065C166.448 79.0666 163.477 77.6968 162.52 75.5116C162.52 73.263 164.28 67.1419 162.869 65.1196C161.817 63.6049 162.049 61.4252 160.155 59.6906C158.422 58.1053 156.452 54.267 154.726 52.9044C153.369 51.5471 139.796 43.4037 143.868 54.2616C143.868 54.2616 151.185 48.4102 151.185 45.2831C151.185 42.6283 146.018 37.706 145.225 35.2602C144.406 32.7276 139.624 34.1754 138.072 31.9576C136.494 29.7073 135.04 28.3501 132.83 26.5232C130.617 24.6964 128.845 23.6812 126.118 22.3782C123.432 21.0943 121.396 20.6355 118.325 19.9596C115.358 19.3054 114.066 14.9948 110.85 14.9948C110.85 12.416 106.302 11.6804 105.174 9.43824C104.007 7.11192 103.944 6.13743 101.82 4.38387C99.6988 2.63302 97.8221 2.29272 95.0071 1.32908C92.2908 0.400725 88.657 3.02665 85.5329 3.02665C81.9945 3.02665 81.6055 -0.244344 78.6129 0.933744C75.5119 2.15255 71.3901 2.20685 69.246 4.38387C67.1216 6.53917 64.7586 8.09999 63.9397 10.8878C64.237 9.43824 61.4906 8.54517 61.1025 8.54517C58.5342 8.54517 57.6949 8.12714 55.2746 8.54517C52.7819 8.97678 48.4348 10.0544 46.1592 10.8878C43.8441 11.7347 40.0381 12.2152 38.0157 13.4258C35.9933 14.6338 36.9817 18.4395 35.3012 19.9596C33.6241 21.4743 32.5022 20.6029 31.2295 22.3782C29.9667 24.1372 31.1207 29.7155 30.3117 31.6808C29.0521 34.7047 29.7624 37.6472 29.7624 41.024C29.7624 43.9665 27.5483 40.7217 28.5021 43.4037C24.5539 39.3319 20.3983 43.7331 20.3852 43.744C14.9562 45.1012 15.3259 47.8184 13.0865 49.1729C10.8339 50.5329 12.8247 54.3115 10.8845 55.9592C8.94426 57.6069 12.4526 60.8452 10.8708 62.7454C9.026 64.9686 6.95676 67.6857 5.66767 70.1994C4.4016 72.6668 5.03631 75.4628 4.37862 78.1528C3.74065 80.7642 4.97383 83.1339 4.97383 85.8973C4.97383 88.1801 -0.415033 90.425 0.0256235 92.6048C0.476146 94.8442 1.0046 97.6374 1.87934 99.7384C2.77052 101.875 1.45191 104.22 2.741 106.177C4.04324 108.156 2.741 108.892 2.741 111.606C4.41484 113.373 4.97383 115.915 4.97383 117.867C4.97383 120.582 4.09824 121.107 4.37862 122.464C4.99383 125.442 5.20678 125.516 7.09311 127.893C8.16998 129.25 8.16998 127.893 8.16998 130.608C8.16998 133.322 13.7568 137.451 13.599 140.108C13.5562 140.76 19.0279 143.518 19.0279 144.18C19.0279 146.588 22.1594 141.96 22.6429 144.251C23.1427 146.607 20.7289 149.373 21.699 151.572C22.6856 153.808 26.3522 154.807 27.7794 156.84C29.2198 158.893 28.4042 162.734 30.2426 164.539C32.0842 166.349 34.4787 168.448 36.6721 169.968C38.859 171.482 41.5123 170.893 43.9984 172.08C46.4614 173.255 49.0034 173.961 51.7131 174.775C54.3768 175.576 56.9911 175.18 59.8456 175.592C61.1905 175.788 73.6005 174.837 75.0277 174.775V172.682L92.3191 165.896L95.0071 173.699L109.937 175.592C111.713 174.265 117.309 176.469 119.104 176.132C122.208 175.549 123.869 173.103 126.671 171.987C129.519 170.853 133.748 172.199 136.194 170.587C138.651 168.966 144.106 169.284 146.066 167.256C148.02 165.236 148.339 161.675 149.71 159.324C151.062 157.011 150.085 153.806 150.789 151.243C151.473 148.762 154.12 146.227 154.12 143.575C154.12 141.012 154.761 141.156 154.12 138.751C153.459 136.27 156.022 136.93 154.752 134.679C153.463 132.391 162.15 132.252 160.312 130.267C162.653 129.049 160.817 126.353 162.869 124.838C164.925 123.318 162.503 118.476 164.227 116.695C165.943 114.92 164.242 113.266 165.584 111.266C166.912 109.284 159.395 102.765 160.312 100.599C161.213 98.4708 163.364 96.9805 163.827 94.7085C164.281 92.4962 165.584 90.5136 165.584 88.1927C165.584 85.8094 167.421 83.684 166.941 81.4065Z" fill="#69A816"/>
<path d="M162.528 127.893C164.254 131.965 163.155 132.932 162.528 135.192C161.9 137.453 160.182 141.466 158.494 142.559C158.494 142.559 157.468 144.18 156.929 146.17C156.929 148.822 154.206 151.992 153.522 154.473C152.815 157.036 147.162 155.461 145.811 157.774C144.436 160.125 146.741 161.686 144.788 163.703C142.825 165.73 137.639 165.212 135.179 166.83C132.732 168.442 131.378 174.042 128.53 175.177C125.728 176.292 122.249 175.717 119.144 176.301C116.139 176.865 114.508 181.843 111.295 181.843C107.707 181.843 107.827 181.183 104.509 180.485C101.072 179.763 103.472 180.717 100.437 179.349C98.1942 180.269 96.071 180.793 93.6507 181.428C91.2731 182.053 86.8645 183.2 82.7622 182.503C80.3057 182.815 70.6525 178.906 68.0908 178.906C65.1739 178.906 62.53 179.751 59.7545 179.349C56.9001 178.936 54.2331 175.891 51.5695 175.09C48.8598 174.276 45.9222 172.5 43.4592 171.325C40.9731 170.136 39.1061 167.096 36.916 165.578C34.7226 164.058 34.4163 163.294 32.5747 161.484C30.7364 159.679 26.7973 161.162 25.3569 159.11C23.9297 157.077 20.0153 156.748 19.0288 154.511C18.0587 152.313 16.8128 150.608 16.3129 148.252C15.8262 145.961 14.957 141.159 14.957 138.751C14.9571 135.192 14.9571 135.192 16.3096 131.965C19.4271 130.727 23.7324 140.825 25.3569 142.559C26.9814 144.297 26.5933 147.334 28.5566 148.811C30.5232 150.29 31.3617 153.352 33.6143 154.511C35.867 155.67 39.2311 155.668 41.7205 156.45C44.2855 157.256 47.6956 155.13 50.3922 155.502C53.0887 155.874 55.4893 159.685 58.2287 159.639C60.9647 159.593 63.5363 157.12 66.2197 156.669C68.9031 156.219 70.6197 153.906 73.1584 153.07C75.7037 152.231 79.5446 153.808 81.8531 152.595C84.1616 151.384 86.1347 150.193 88.1144 148.624C90.7485 149.422 99.026 152.533 101.801 152.595C104.587 152.657 108.622 153.692 111.302 153.07C113.986 152.446 123.9 148.854 126.232 147.598C128.557 146.346 129.931 140.578 131.661 138.751C133.394 136.924 129.386 132.79 130.304 130.608C131.221 128.428 126.133 126.134 126.232 123.821C126.327 121.509 126.965 121.976 126.232 119.75C125.498 117.518 126.446 118.897 124.875 116.973C123.944 115.833 124.557 115.645 127.218 115.664C129.954 115.683 132.89 116.359 135.495 115.686C138.06 115.021 138.872 111.625 141.181 110.374C143.417 109.163 145.4 108.322 147.277 106.641C149.211 104.91 152.917 104.418 154.335 102.399C155.749 100.382 157.089 97.4067 158.032 95.1889C158.966 92.9902 162.011 91.3479 162.528 89.0406C163.041 86.736 164.126 84.4015 164.264 82.0779C164.376 80.1914 161.291 79.3472 161.209 77.4606C161.127 75.574 161.573 63.0918 162.87 65.1196C164.281 67.1419 163.906 75.3026 164.879 77.5257C165.839 79.7109 168.006 79.0666 168.5 81.4065C168.98 83.6839 168.5 85.7968 168.5 88.1882C168.5 90.5064 171.407 93.107 170.953 95.3194C170.489 97.5941 170.565 101.335 169.664 103.463C168.746 105.629 165.471 109.044 164.142 111.025C162.801 113.026 162.926 115.197 161.209 116.973C159.486 118.753 159.644 120.716 159.644 122.464C160.163 125.179 161.317 125.039 162.528 127.893Z" fill="#558812"/>
<path d="M54.3012 118.392C52.9439 121.107 48.8346 122.703 46.24 122.812C43.6454 122.92 41.1034 123.767 38.5154 123.561C35.9306 123.354 33.3262 123.135 30.8039 122.627C28.2816 122.119 25.539 121.81 23.1285 121.006C23.2535 120.8 21.3133 121.177 21.4383 120.974C19.1561 119.747 19.7545 116.967 17.7551 115.453C15.7557 113.938 12.9506 113.007 11.2735 111.237C9.60626 109.475 9.81347 106.723 8.51123 104.747C7.22214 102.79 3.75605 101.595 2.86816 99.4588C1.99342 97.3605 3.6278 94.6895 3.17728 92.45C2.73991 90.2703 2.49985 88.1829 2.49985 85.9027C2.49985 83.1393 0.322872 80.1995 0.960838 77.5882C1.61853 74.8981 2.86487 72.1375 4.13094 69.6673C5.42002 67.1564 9.0404 64.9686 10.8852 62.7454C10.3788 65.1097 10.333 67.721 10.1324 70.0202C9.92196 72.4089 7.81729 74.7217 7.93897 77.0263C8.06393 79.4123 9.48459 81.6844 9.96799 83.9645C10.4646 86.3071 10.2705 88.7936 11.142 91.0059C12.0266 93.2535 14.5784 94.9094 15.8511 97.0022C17.127 99.0978 18.5411 100.995 20.2051 102.914C21.8427 104.804 22.4292 109.535 24.4418 111.237C26.3951 112.887 29.0773 111.872 31.3827 113.33C33.5892 114.725 32.7709 117.187 35.2997 118.392C37.697 119.535 42.1105 117.437 44.8004 118.392C47.3392 119.296 54.3012 116.935 54.3012 118.392Z" fill="#558812"/>
<path d="M71.9423 68.1744C69.0978 68.8991 69.4664 68.0332 66.5134 68.1744C63.557 68.3182 60.8153 67.6803 57.8919 67.2731C54.9717 66.866 51.9956 66.5592 49.2497 65.639C46.5038 64.7188 47.2276 63.3317 44.7974 61.9337C42.3705 60.5385 36.7173 59.1134 34.7442 57.2757C32.2549 54.9602 32.1036 53.337 30.5679 50.5302C30.581 50.5193 25.8141 46.4585 24.4569 45.1012C23.1013 42.3867 23.0996 37.1885 23.0996 34.2433C23.0996 30.8664 29.3083 30.481 30.5679 27.457C31.1466 29.9706 30.7126 36.3008 31.8208 38.6488C32.9224 40.9806 33.6656 45.6197 35.2967 47.8157C36.8554 49.914 41.4013 45.8178 43.4402 47.8157C45.6007 49.9303 44.9633 55.647 47.5119 57.3164C50.1032 59.0103 54.0924 58.7768 57.0126 60.0309C59.9163 61.2769 60.6386 63.272 63.7988 64.1026C66.9097 64.9251 73.7494 67.2107 71.9423 68.1744Z" fill="#558812"/>
<path d="M125.185 73.6033C124.877 73.6033 121.409 77.9736 120.387 80.2755C119.364 82.5774 117.315 83.8017 115.618 85.8185C113.925 87.8354 113.554 91.3805 111.305 92.982C109.052 94.5836 104.247 94.2063 101.554 95.2595C98.857 96.3154 95.2399 98.9729 92.3033 99.391C89.3699 99.809 87.1293 100.952 84.1598 100.748C81.1903 100.542 78.8247 100.2 76.0163 99.391C73.2047 98.5793 66.5156 96.3914 66.5156 98.0337C67.6173 100.056 70.1951 100.422 71.9446 102.105C73.6908 103.78 75.7226 102.719 77.9456 103.965C80.1653 105.211 82.9915 106.734 85.5171 107.467C88.0525 108.202 90.5898 107.336 93.2666 107.467C95.9402 107.597 98.9393 106.924 101.554 106.44C104.161 105.96 103.501 105.841 105.876 104.82C108.25 103.797 109.341 103.598 111.305 102.105C113.271 100.61 119.275 98.2888 120.656 96.3914C122.442 93.9294 121.377 91.0928 122.163 88.533C122.998 85.8158 125.665 83.1746 125.185 80.4628C124.711 77.8569 127.036 76.0979 125.185 73.6033Z" fill="#558812"/>
<path d="M117.902 67.3301C115.375 66.8172 122.193 63.8555 124.876 62.5118C127.563 61.1655 131.036 62.0288 133.019 60.0309C135.009 58.0249 136.121 54.4471 137.091 51.9742C138.061 49.5122 140.036 47.6855 139.806 45.1013C139.575 42.5198 133.004 39.6721 131.662 37.3404C130.317 35.0005 130.623 29.1645 128.249 27.4571C125.927 25.7849 122.547 24.1943 119.808 23.3853C116.95 22.5438 116.97 21.4597 114.007 21.6877C111.113 21.9103 112.651 21.6877 109.936 21.6877C108.579 21.6877 107.952 20.299 107.232 17.9564C106.512 15.6138 102.708 12.8855 100.446 11.3464C98.1929 9.80188 93.8683 9.95404 90.9448 9.81289C88.0214 9.66902 83.9072 7.14183 81.4441 8.45564C78.9942 9.7586 75.7628 9.30241 74.6579 11.3464C73.5365 13.423 72.6242 14.9015 71.9333 14.9015C70.9145 14.9015 68.7539 15.1604 66.5144 13.8846C64.2717 12.6088 62.4326 16.2588 59.7181 16.2588C58.3608 16.2588 57.5239 16.2588 55.6463 16.2588C54.2891 16.2588 51.6123 19.2565 48.8861 19.3136C44.8142 22.028 43.4572 22.028 43.4572 22.028C42.0997 20.6708 47.5029 16.2588 48.8616 14.9015C51.1372 14.0709 53.8209 13.0973 56.3169 12.6629C58.7372 12.2449 59.9868 10.3583 62.5551 10.3583C62.9432 10.3583 63.9955 8.28448 64.3671 8.28448C65.1859 5.4967 67.0735 5.77629 69.1979 3.62099C71.3419 1.44397 74.287 1.53375 77.388 0.312227C80.3805 -0.865861 83.3503 1.66943 86.8887 1.66943C90.0128 1.66943 92.3159 -0.616097 95.0322 0.312259C97.8504 1.2759 100.346 1.16709 102.471 2.91793C104.592 4.66878 107.834 5.81158 109.002 8.13518C110.126 10.3773 111.293 11.3059 111.293 13.8846C114.51 13.8846 119.185 12.0088 122.151 12.6629C125.219 13.3389 130.109 14.9748 132.795 16.2588C135.521 17.5617 137.891 20.8744 140.104 22.6985C142.317 24.5254 142.202 29.2785 143.777 31.5288C145.333 33.7465 145.214 34.805 146.033 37.3404C146.826 39.7888 149.011 42.6336 149.011 45.2884C149.011 47.7179 151.246 49.9085 150.664 51.9742C150.003 54.3222 147.824 57.3027 146.492 59.1486C145.045 61.1546 140.711 61.1329 138.58 62.5118C136.455 63.8854 135.492 67.4251 132.795 68.1363C130.303 68.7905 126.962 66.9853 124.071 67.0396C121.483 67.0858 120.756 67.7888 117.902 67.3301Z" fill="#84D11F"/>
<path d="M100.445 45.1011C96.3736 42.3865 94.3186 43.6136 90.9446 42.3866C87.5674 41.157 86.3593 42.9103 82.8012 43.7436C79.243 44.577 76.0106 44.9786 73.9224 47.4895C73.3025 50.5302 66.5161 54.6019 69.2327 55.9592C70.6533 53.8527 74.9288 52.0528 77.3722 50.53C79.8254 49.0017 82.752 48.2876 85.6294 47.8261C88.5035 47.3647 93.5357 45.8803 96.3736 46.4585C99.2149 47.0394 100.086 49.1698 102.364 50.6845C104.518 50.53 100.715 45.549 100.445 45.1011Z" fill="#84D11F"/>
<path d="M51.7031 75.5767C52.9424 74.9606 47.5103 72.0071 44.7513 71.1575C41.9923 70.3078 39.5625 71.8444 36.6554 72.2461C33.7484 72.6478 30.7842 72.056 28.5119 73.6032C26.2396 75.1505 25.4728 78.1093 24.4402 80.3895C23.4076 82.6696 21.0579 84.4856 21.5413 86.8825C22.028 89.2821 24.4402 93.962 25.2737 93.191C28.512 93.962 28.512 85.8186 29.8692 85.8186C30.9051 83.1231 29.893 80.9813 32.5828 79.0323C35.2925 77.0724 41.1717 76.6924 44.7989 76.3179C48.4228 75.9487 50.2279 77.6751 51.7031 75.5767Z" fill="#84D11F"/>
</svg>
