<svg width="512" height="512" viewBox="0 0 512 512" fill="none" xmlns="http://www.w3.org/2000/svg">
<path d="M256 256L512 384L256 512L0 384L256 256Z" fill="#99CC33"/>
<path d="M256 256L512 384L256 512L0 384L256 256Z" fill="#99CC33"/>
<path opacity="0.3" d="M250 324C266.569 324 280 316.837 280 308C280 299.163 266.569 292 250 292C233.431 292 220 299.163 220 308C220 316.837 233.431 324 250 324Z" fill="black"/>
<path d="M244 200V308C244 310.4 246.8 312 250 312C253.2 312 256 310.4 256 308V200H244Z" fill="#825012"/>
<path d="M222 208C236.359 208 248 196.359 248 182C248 167.641 236.359 156 222 156C207.641 156 196 167.641 196 182C196 196.359 207.641 208 222 208Z" fill="#539B00"/>
<path d="M240 184C259.882 184 276 167.882 276 148C276 128.118 259.882 112 240 112C220.118 112 204 128.118 204 148C204 167.882 220.118 184 240 184Z" fill="#539B00"/>
<path d="M252 261.6C262.4 261.6 264 258 264 248V216H268V256C268 262.8 262.8 268 256 268H252V261.6Z" fill="#825012"/>
<path d="M252 259.2C245.2 259.2 240 257.6 240 250.8V212H236V252C236 258.8 241.2 264 248 264H252V259.2Z" fill="#825012"/>
<path d="M244 175.2C237.2 175.2 232 173.6 232 166.8V156H228V168C228 174.8 233.2 180 240 180H244V175.2Z" fill="#825012"/>
<path d="M270 240C286.569 240 300 226.569 300 210C300 193.431 286.569 180 270 180C253.431 180 240 193.431 240 210C240 226.569 253.431 240 270 240Z" fill="#539B00"/>
<path d="M288 220C301.255 220 312 209.255 312 196C312 182.745 301.255 172 288 172C274.745 172 264 182.745 264 196C264 209.255 274.745 220 288 220Z" fill="#539B00"/>
<path d="M268 207.2C274.8 207.2 280 205.6 280 198.8V188H284V200C284 206.8 278.8 212 272 212H268V207.2Z" fill="#825012"/>
<path d="M240 145.6H244V184H240V145.6Z" fill="#825012"/>
<path d="M276 188C293.673 188 308 173.673 308 156C308 138.327 293.673 124 276 124C258.327 124 244 138.327 244 156C244 173.673 258.327 188 276 188Z" fill="#539B00"/>
<path d="M256 152C273.673 152 288 137.673 288 120C288 102.327 273.673 88 256 88C238.327 88 224 102.327 224 120C224 137.673 238.327 152 256 152Z" fill="#539B00"/>
<path opacity="0.2" d="M258 152C266.8 152 274.4 157.2 277.6 164.4C278.8 164 280.4 164 282 164C289.2 164 295.6 167.6 299.6 172.8C298 165.6 291.6 160 284 160H283.6C281.6 150.8 273.6 144 264 144C256 144 249.2 148.8 246 155.6C249.2 153.2 253.6 152 258 152Z" fill="white"/>
<path d="M220 164C227.953 164 234.4 157.553 234.4 149.6C234.4 141.647 227.953 135.2 220 135.2C212.047 135.2 205.6 141.647 205.6 149.6C205.6 157.553 212.047 164 220 164Z" fill="#539B00"/>
<path opacity="0.2" d="M220 150C220 140 226.8 131.6 236 128.8C236.8 117.2 246 108 258 108C264.8 108 271.2 111.2 275.2 116.4C272.8 106.8 264 100 254 100C242.4 100 232.8 108.8 232 120.4C222.8 122.4 216 130.4 216 140C216 144.4 217.6 148.8 220 152V150Z" fill="white"/>
<path d="M241.2 248.4C261.745 248.4 278.4 231.745 278.4 211.2C278.4 190.655 261.745 174 241.2 174C220.655 174 204 190.655 204 211.2C204 231.745 220.655 248.4 241.2 248.4Z" fill="#539B00"/>
<path d="M289.2 200.4C296.49 200.4 302.4 194.49 302.4 187.2C302.4 179.91 296.49 174 289.2 174C281.91 174 276 179.91 276 187.2C276 194.49 281.91 200.4 289.2 200.4Z" fill="#539B00"/>
<path opacity="0.3" d="M312 196C312 194.4 312 192.8 311.6 191.2C309.2 206.4 296 218 280 218H278.4C281.2 219.2 284.8 220 288 220C290.8 220 293.2 219.6 295.6 218.8C290 224.4 282.4 228 274 228C270 228 266 227.2 262.4 225.6C256 232 246.8 236 237.2 236C223.2 236 210.8 228 204.8 216.8C207.6 234.4 222.8 248 241.2 248C250 248 258.4 244.8 264.8 239.6C266.4 240 268 240 270 240C284 240 296 230.4 299.2 217.2C306.8 213.2 312 205.2 312 196Z" fill="black"/>
<path opacity="0.2" d="M230 192C233.2 192 236 192.4 238.8 193.6C242.4 188 248.8 184 256 184C260 184 263.6 185.2 266.8 187.2C264 180.4 257.6 176 250 176C243.6 176 238 179.2 234.8 184H232C220.4 184 210.4 192.4 208.4 203.6C213.2 196.4 221.2 192 230 192Z" fill="white"/>
<path opacity="0.3" d="M212 194C204.4 190.8 198.4 184.4 196.4 176C196 178 195.6 180 195.6 182C195.6 191.6 200.8 199.6 208.4 204.4C209.2 200.8 210.4 197.2 212 194Z" fill="black"/>
<path opacity="0.3" d="M142 364C158.569 364 172 356.837 172 348C172 339.163 158.569 332 142 332C125.431 332 112 339.163 112 348C112 356.837 125.431 364 142 364Z" fill="black"/>
<path d="M148 252V348C148 350.4 145.2 352 142 352C138.8 352 136 350.4 136 348V252H148Z" fill="#825012"/>
<path d="M178 272C192.359 272 204 260.359 204 246C204 231.641 192.359 220 178 220C163.641 220 152 231.641 152 246C152 260.359 163.641 272 178 272Z" fill="#539B00"/>
<path d="M164 248C183.882 248 200 231.882 200 212C200 192.118 183.882 176 164 176C144.118 176 128 192.118 128 212C128 231.882 144.118 248 164 248Z" fill="#539B00"/>
<path d="M140 301.6C129.6 301.6 128 298 128 288V256H124V296C124 302.8 129.2 308 136 308H140V301.6Z" fill="#825012"/>
<path d="M144 307.2C150.8 307.2 156 305.6 156 298.8V260H160V300C160 306.8 154.8 312 148 312H144V307.2Z" fill="#825012"/>
<path d="M128 295.2C121.2 295.2 120 290 120 286.8V248H116V288C116 294.8 121.2 300 128 300V295.2Z" fill="#825012"/>
<path d="M124 288C143.882 288 160 271.882 160 252C160 232.118 143.882 216 124 216C104.118 216 88 232.118 88 252C88 271.882 104.118 288 124 288Z" fill="#539B00"/>
<path d="M104 260C117.255 260 128 249.255 128 236C128 222.745 117.255 212 104 212C90.7452 212 80 222.745 80 236C80 249.255 90.7452 260 104 260Z" fill="#539B00"/>
<path d="M124 251.2C117.2 251.2 112 249.6 112 242.8V232H108V244C108 250.8 113.2 256 120 256H124V251.2Z" fill="#825012"/>
<path d="M120 236C137.673 236 152 221.673 152 204C152 186.327 137.673 172 120 172C102.327 172 88 186.327 88 204C88 221.673 102.327 236 120 236Z" fill="#539B00"/>
<path d="M136 220C153.673 220 168 205.673 168 188C168 170.327 153.673 156 136 156C118.327 156 104 170.327 104 188C104 205.673 118.327 220 136 220Z" fill="#539B00"/>
<path d="M162 196C171.941 196 180 187.941 180 178C180 168.059 171.941 160 162 160C152.059 160 144 168.059 144 178C144 187.941 152.059 196 162 196Z" fill="#539B00"/>
<path opacity="0.2" d="M104.4 212C113.2 212 120.8 217.2 124 224.4C125.2 224 126.8 224 128.4 224C135.6 224 142 227.6 146 232.8C144.4 225.6 138 220 130.4 220H130C128 210.8 120 204 110.4 204C102.4 204 95.5999 208.8 92.3999 215.6C95.5999 213.2 99.9999 212 104.4 212Z" fill="white"/>
<path d="M136 201.6C136.8 202.4 138 203.2 138.8 204H140V192C138.8 192 137.2 191.6 136 191.2V201.6Z" fill="#825012"/>
<path opacity="0.2" d="M138 172C147.6 172 155.2 179.6 156 188.8C158 188.4 160 188 162 188C172 188 180.4 194.4 183.2 203.6C183.6 202 184 200 184 198C184 188 176 180 166 180C164 180 162 180.4 160 181.2C159.6 174 153.6 168 146 168C142 168 138.4 169.6 136 172H138Z" fill="white"/>
<path opacity="0.3" d="M199.6 217.6C192.8 225.2 183.2 230 172.4 230H170C174 234.4 176.4 239.6 176.8 245.6C188.4 241.2 197.6 230.4 199.6 217.6Z" fill="black"/>
<path opacity="0.3" d="M190 258.8C191.2 261.6 191.6 264.8 192 268C198.8 263.6 203.6 256.4 204 248C200.8 253.2 195.6 256.8 190 258.8Z" fill="black"/>
<path opacity="0.3" d="M102.8 212C96.4 206.4 92 198 92 188.4C89.6 192.8 88 198.4 88 204C88 208.4 88.8 212.4 90.4 216.4C94 213.6 98.4 212.4 102.8 212Z" fill="black"/>
<path d="M164 218.4C164 225.2 158.8 226.8 152 226.8V232H156C162.8 232 168 226.8 168 220V212C166.8 212 165.2 211.6 164 211.2V218.4Z" fill="#825012"/>
<path d="M155.2 300.4C175.745 300.4 192.4 283.745 192.4 263.2C192.4 242.655 175.745 226 155.2 226C134.655 226 118 242.655 118 263.2C118 283.745 134.655 300.4 155.2 300.4Z" fill="#539B00"/>
<path opacity="0.2" d="M140 252C144.8 252 149.2 253.2 153.2 255.2C158 250.8 164.8 248 172 248C178.4 248 184.4 250 188.8 253.6C184.4 245.6 175.6 240 166 240C159.6 240 153.6 242.4 149.2 246.4C146.4 244.8 143.2 244 140 244C130.4 244 122.4 250.8 120.4 260C125.6 255.2 132.4 252 140 252Z" fill="white"/>
<path opacity="0.3" d="M159.2 292C144 292 131.2 284 124 272H120.4C106.4 272 94.3999 264 88.3999 252.4C88.7999 272 104.8 288 124.4 288H128C134.8 295.6 144.4 300 155.2 300C169.6 300 181.6 292 188 280.4C180.4 287.6 170 292 159.2 292Z" fill="black"/>
<path opacity="0.3" d="M45.2 380L24 387.6L39.2 388.4L29.6 394.4H51.6L64 390.8L62 401.6L75.2 399.2L84.8 391.2L103.2 397.2L122.4 394.4L116.4 390.8L123.2 388.8L95.6 381.6L45.2 380Z" fill="black"/>
<path d="M53.5999 300C69.1999 298 76.7999 268 76.7999 268C76.7999 268 79.9999 297.6 99.9999 305.6C100.4 308.4 93.1999 310.8 86.7999 308C86.3999 314 99.5999 323.6 107.6 325.6C108 328.8 100.4 333.6 93.1999 331.2C96.3999 338.4 102 344.4 114 347.6C108.4 350.8 99.5999 348 93.9999 347.6C93.9999 352.4 111.6 356.8 120.4 356.4C118.8 360.8 110.4 365.6 102.8 365.2C102.8 370.4 120 374.8 124.8 376.4C125.2 380.8 112.8 383.6 104 380.8C103.6 386 112.8 390.8 117.2 392.8C117.2 396.8 88.7999 395.6 83.9999 387.2C78.7999 389.2 75.1999 400.4 64.7999 399.6C65.9999 396.8 69.1999 387.2 63.9999 385.2C59.9999 390.8 42.3999 395.2 35.1999 392C37.1999 390 47.1999 388.8 43.9999 382C34.7999 381.6 22.7999 373.6 23.1999 370C25.5999 371.6 40.3999 374 40.7999 370C33.9999 369.6 29.9999 364.4 29.5999 360C31.9999 361.2 46.7999 363.6 47.1999 358.8C41.9999 356.8 35.5999 353.2 35.9999 348.8C40.3999 349.2 49.5999 349.2 50.3999 344.4C44.7999 342.4 39.5999 334.4 39.1999 331.2C43.1999 332.4 59.1999 331.6 59.1999 328C52.3999 327.6 46.3999 324.8 47.1999 320.4C55.9999 319.6 65.9999 310.4 65.9999 306C63.1999 306.4 55.9999 305.2 53.5999 300Z" fill="#28896D"/>
<path opacity="0.2" d="M114.4 347.2C114.4 347.2 103.2 347.6 93.5999 338.4C83.9999 329.2 81.5999 322.8 81.5999 322.8C81.5999 322.8 79.1999 326 71.5999 330.4C63.9999 335.2 47.2 334.8 47.2 334.8C47.2 334.8 57.6 342.8 72.4 338C79.6 335.6 79.1999 334 79.1999 334C79.1999 334 89.5999 342.8 93.5999 344.4C108.4 350.4 114.4 347.2 114.4 347.2Z" fill="white"/>
<path opacity="0.2" d="M52.7998 320.8C65.9998 313.6 74.3998 308 77.1998 296.4C76.3998 301.6 87.5998 316.4 97.9998 324C90.3998 323.2 80.3998 310.4 75.9998 310.8C74.7998 314.8 61.5998 320 52.7998 320.8Z" fill="white"/>
<path opacity="0.2" d="M58.7998 301.2C71.9998 294 74.3998 284.8 76.7998 273.6C75.9998 278.8 82.7998 295.6 93.1998 303.2C85.5998 302.4 78.7998 291.2 75.5998 288.8C74.7998 292.8 67.5998 300.4 58.7998 301.2Z" fill="white"/>
<path opacity="0.2" d="M39.2 350.4C39.2 350.4 55.6 350 68 344C72 343.6 77.2 355.6 80 356C83.2 355.2 84.7999 354.4 88 352.4C90.7999 363.6 110.8 373.6 122 376.8C101.2 376.8 86.8 363.2 84.4 359.2C82 361.2 81.2 366.8 76.8 366.8C72.8 361.2 67.1999 353.2 65.5999 349.2C61.5999 348.8 45.6 354 39.2 350.4Z" fill="white"/>
<path opacity="0.2" d="M29.2 372.8C52.4 375.2 60.8 364.8 64.8 360.4C62.4 376.4 36 380.8 29.2 372.8Z" fill="white"/>
<path opacity="0.2" d="M90.3998 370C96.7998 380.8 99.5998 386.8 114.4 392C89.9998 393.2 87.5998 374.8 90.3998 370Z" fill="white"/>
<path opacity="0.2" d="M68.3999 396.4C69.5999 397.2 83.9999 374.4 73.5999 370.4C67.9999 373.6 72.7999 385.2 68.3999 396.4Z" fill="white"/>
<path opacity="0.3" d="M84.8 302.8L78.8 298C78.8 298 83.6 304 86.8 307.6C93.2 310.8 100.4 308 100 305.2C100 305.6 90.8 307.6 84.8 302.8Z" fill="black"/>
<path opacity="0.3" d="M92.7999 386C85.5999 378.4 83.5999 366.8 83.5999 366.8C83.5999 366.8 79.1999 382 75.5999 389.2C73.1999 393.6 71.1999 397.2 65.5999 398.8V399.2C75.9999 400 79.5999 388.8 84.7999 386.8C89.5999 395.2 118 396.4 118 392.4C117.6 392.4 99.9999 393.6 92.7999 386Z" fill="black"/>
<path opacity="0.3" d="M105.6 359.6C98.3999 359.2 87.9999 345.6 87.9999 345.6C87.9999 345.6 82.7999 348 79.9999 346C77.1999 344 74.3999 341.6 74.3999 341.6C74.3999 341.6 77.1999 354.4 81.1999 354C85.1999 353.6 87.5999 352.4 89.1999 350.4C91.1999 360.4 104 365.6 104 365.6C111.6 366 120 361.2 121.6 356.8C120.8 356 112.8 360 105.6 359.6Z" fill="black"/>
<path opacity="0.3" d="M60.4 327.6C62.4 327.6 64.8 327.6 66.8 327.2C72.4 326.4 82 321.2 82 321.2L74.8 322L77.6 315.6C77.6 315.6 69.2 322.4 61.6 323.6C54 324.4 48.4 320 48.4 320C47.6 324 53.6 326.8 60.4 327.6Z" fill="black"/>
<path opacity="0.3" d="M48.3998 358.4C47.9998 363.2 33.1998 360.8 30.7998 359.6C41.5998 366.8 61.9998 358.4 61.9998 358.4H51.9998L63.1998 352.8C63.1998 352.8 37.9998 354.4 37.1998 348C36.7998 352.8 43.1998 356.4 48.3998 358.4Z" fill="black"/>
<path opacity="0.3" d="M58.7998 363.6C58.7998 363.6 50.7998 366 45.5998 366C40.3998 366 31.1998 361.2 30.7998 359.6C31.1998 363.6 35.1998 368.8 41.5998 369.2C54.3998 370.4 58.7998 363.6 58.7998 363.6Z" fill="black"/>
<path opacity="0.3" d="M68.8 387.2C68.8 382.8 67.6 356.8 67.6 356.8C67.6 356.8 67.2 372.4 53.2 385.6C48.4 390 36 391.2 36 391.2C43.2 394.4 60.4 390.4 64.8 384.4C68.8 386 67.6 392 66.4 396C67.6 394 68.8 390 68.8 387.2Z" fill="black"/>
<path opacity="0.3" d="M264.8 356.4L227.2 369.6L254 371.2L237.6 382.4L276 381.6L298.4 376L294.8 394.8L318.4 390.8L335.2 376.4L368 386.8L402 382.4L391.2 375.6L403.2 372.4L354 358.8L264.8 356.4Z" fill="black"/>
<path d="M407.2 349.2C398.8 346.8 368 338.8 368 329.6C381.2 330.4 396.4 322 399.2 314C389.2 314.8 373.6 311.6 362.8 307.2C361.2 305.2 360 303.2 359.6 301.2C368.8 303.6 379.6 302.8 387.2 298.4C382.8 297.2 378.8 296 375.6 294.4C380.4 290.4 383.6 285.2 385.6 282C376 284.8 358 281.6 358 273.2C368.4 274 380 266 382.4 258.4C378.8 258.8 374 258 369.2 257.2C362.4 254 354.4 249.2 348.4 244C355.6 245.2 366.4 248.4 373.2 243.6C363.6 240.4 357.2 236 352.4 230.4C358 229.6 362.4 226.8 362 224C357.6 222.4 353.6 219.6 350 216.8C358 216.8 364.4 210.8 364 206.4C352.8 202.8 334 187.2 334.8 176.8C343.6 182 353.6 177.6 353.2 173.2C325.6 160 321.2 110.4 321.2 110.4C321.2 110.4 310.8 165.2 288.8 168C292 176.8 302.4 177.2 307.2 172.8C307.2 179.6 293.6 195.6 281.2 196.8C280.8 202.4 285.2 206.4 292 208.4C288.4 211.2 284 212.8 279.6 213.6L280.8 216C276.4 216.4 272.4 216 270.4 215.2C270.8 220.4 278 234 285.6 237.2C284.8 245.2 272 245.6 265.6 244.4C265.2 249.6 268.8 253.6 274 257.2C276.4 258.8 278.8 260 280.8 261.2C280 269.2 259.6 265.2 256.4 263.2C256.4 265.6 257.2 268 258.4 270.4C260 274.4 262 279.2 265.2 283.2C258.8 283.6 249.2 281.6 247.2 279.6C246.8 284.8 258 294.4 268.8 298.4C263.2 300.4 254.8 300.4 250 299.6C249.2 307.6 260.4 313.6 269.6 317.2C268.8 325.6 242.4 321.6 238.4 319.2C238.8 326.4 246.4 336 258 336.8C257.2 343.6 230.4 339.6 226.8 336.8C226.4 343.6 248 358 264 358.4C269.2 370 251.6 372.4 248.4 376C261.2 382 292 374.4 299.2 364.4C308 368.4 302.8 385.2 300.4 390C318.8 391.2 325.2 371.6 334.4 368C342.8 382.8 393.2 385.2 393.2 377.6C385.2 373.6 369.2 365.2 369.6 356C385.6 362 408.4 357.2 407.2 349.2Z" fill="#28896D"/>
<path opacity="0.2" d="M387.6 298.4C387.6 298.4 367.6 299.2 350.4 282.8C333.2 266 328.8 255.2 328.8 255.2C328.8 255.2 324.8 260.4 311.2 268.8C297.6 277.2 268 276.8 268 276.8C268 276.8 286.8 290.8 313.2 282.8C326 278.8 324.8 276 324.8 276C324.8 276 343.2 291.6 350.4 294.4C376.8 304 387.6 298.4 387.6 298.4Z" fill="white"/>
<path opacity="0.2" d="M274 217.6C296 217.2 309.2 209.6 318 202C319.6 207.6 328 228.4 360.4 240.4C346.8 238.8 314.8 225.2 315.6 216.8C314 223.6 288.4 233.6 274 217.6Z" fill="white"/>
<path opacity="0.2" d="M300.4 165.201C320.8 152.401 317.6 145.601 321.2 129.601C319.6 138.801 328 159.601 346.4 173.601C328.8 170.001 323.6 158.801 320 150.401C318.8 156.801 312 161.601 300.4 165.201Z" fill="white"/>
<path opacity="0.2" d="M291.2 199.6C314.8 186.8 321.6 186 326.4 166C324.8 175.2 334.4 189.6 352.8 203.2C339.2 201.6 333.2 188.8 327.6 184.4C326.4 191.2 307.6 198 291.2 199.6Z" fill="white"/>
<path opacity="0.2" d="M254 303.6C254 303.6 283.2 303.2 305.6 292.4C312.4 292 322.4 312.8 327.2 314C332.4 312.4 335.6 311.2 341.2 307.6C346 327.6 381.6 345.2 401.6 351.2C364.8 351.2 338.8 327.2 335.2 320C330.8 323.6 330 333.6 321.6 333.6C314.8 324 304.4 309.6 302 302.4C294.4 300.8 265.2 310.4 254 303.6Z" fill="white"/>
<path opacity="0.2" d="M236.4 343.601C277.6 348.001 292.4 329.201 299.6 321.601C295.2 350.401 248.8 358.001 236.4 343.601Z" fill="white"/>
<path opacity="0.2" d="M345.2 338.4C356.8 357.6 361.2 368.4 388 377.2C344.8 380 340.4 347.6 345.2 338.4Z" fill="white"/>
<path opacity="0.2" d="M306.4 385.2C308.8 386.4 334 346.4 315.6 339.2C305.2 344.8 314 365.6 306.4 385.2Z" fill="white"/>
<path opacity="0.3" d="M335.6 219.6L325.2 211.2C325.2 211.2 333.6 221.6 339.2 228.4C350.4 234 363.2 229.2 362.8 224.4C362.4 224 346 228 335.6 219.6Z" fill="black"/>
<path opacity="0.3" d="M349.2 367.2C336 353.6 333.2 333.2 333.2 333.2C333.2 333.2 325.2 360.4 319.2 372.8C315.2 380.8 311.6 387.2 301.2 390C301.2 390.4 301.2 390.4 300.8 390.8C319.2 392 325.6 372.4 334.8 368.8C343.2 383.6 393.6 386 393.6 378.4C393.6 378.8 362.4 380.8 349.2 367.2Z" fill="black"/>
<path opacity="0.3" d="M372 320.001C358.8 319.201 340.8 294.801 340.8 294.801C340.8 294.801 331.6 299.201 326.4 295.601C321.2 292.001 316.4 287.601 316.4 287.601C316.4 287.601 321.2 310.401 328 309.201C335.2 308.001 339.2 306.001 342 302.801C345.2 320.401 368 330.001 368 329.601C381.2 330.401 396.4 322.001 399.2 314.001C399.6 314.001 385.2 320.801 372 320.001Z" fill="black"/>
<path opacity="0.3" d="M290.8 263.201V260.801C294.8 260.801 298.4 262.801 302 262.401C312 261.201 328.8 249.201 328.8 249.201L316 250.801L321.2 239.601C321.2 239.601 306 252.001 292.8 253.601C279.2 255.201 267.2 246.401 267.2 246.401C266 254.001 278.4 262.001 290.8 263.201Z" fill="black"/>
<path opacity="0.3" d="M270.4 318C269.6 326.4 243.2 322.4 239.2 320C258.4 332.4 294.8 318 294.8 318L277.2 318.4L297.2 308.8C297.2 308.8 252.8 311.6 250.8 300.4C249.6 308 260.8 314.4 270.4 318Z" fill="black"/>
<path opacity="0.3" d="M288.8 327.2C288.8 327.2 274.8 331.2 265.2 331.2C256.4 331.2 239.6 322.4 238.8 320C239.6 327.2 246.8 336.4 258.4 337.2C281.2 339.6 288.8 327.2 288.8 327.2Z" fill="black"/>
<path opacity="0.3" d="M306.8 368.801C306.8 360.801 304.8 314.801 304.8 314.801C304.8 314.801 303.6 342.401 278.8 366.001C270.4 374.001 248.8 376.401 248.8 376.401C261.6 382.401 292.4 374.801 299.6 364.801C306.4 368.001 304.8 378.401 302.8 385.601C304.4 380.801 306.8 374.001 306.8 368.801Z" fill="black"/>
<path opacity="0.3" d="M382.8 258C382.8 258 369.6 265.2 356.4 262C343.2 258.8 333.6 250 333.6 250C333.6 250 338.8 264.8 344.8 274C351.2 283.6 374.8 292 386 282C376.4 284.8 358.4 281.6 358.4 273.2C368.8 273.6 380.4 265.6 382.8 258Z" fill="black"/>
<path opacity="0.3" d="M349.6 207.201C338.4 205.601 327.2 191.601 327.2 191.601C327.2 191.601 316 197.601 326.8 204.801C337.6 211.601 328 213.601 350 217.201C358 217.201 364.4 211.201 364 206.801C364.4 206.401 360.4 208.401 349.6 207.201Z" fill="black"/>
<path opacity="0.3" d="M281.6 197.201C281.6 197.201 289.6 199.201 308 187.601C326.4 176.001 320 155.601 320 155.601C320 155.601 313.2 164.801 306 166.001C300 166.801 293.6 168.801 290 168.401H288.8C292 177.201 302.4 177.601 307.2 173.201C307.6 180.401 294 196.001 281.6 197.201Z" fill="black"/>
<path opacity="0.3" d="M206 456C222.569 456 236 448.837 236 440C236 431.163 222.569 424 206 424C189.431 424 176 431.163 176 440C176 448.837 189.431 456 206 456Z" fill="black"/>
<path d="M200 332V440C200 442.4 202.8 444 206 444C209.2 444 212 442.4 212 440V332H200Z" fill="#825012"/>
<path d="M178 340C192.359 340 204 328.359 204 314C204 299.641 192.359 288 178 288C163.641 288 152 299.641 152 314C152 328.359 163.641 340 178 340Z" fill="#539B00"/>
<path d="M196 316C215.882 316 232 299.882 232 280C232 260.118 215.882 244 196 244C176.118 244 160 260.118 160 280C160 299.882 176.118 316 196 316Z" fill="#539B00"/>
<path d="M208 393.6C218.4 393.6 220 390 220 380V348H224V388C224 394.8 218.8 400 212 400H208V393.6Z" fill="#825012"/>
<path d="M208 391.2C201.2 391.2 196 389.6 196 382.8V344H192V384C192 390.8 197.2 396 204 396H208V391.2Z" fill="#825012"/>
<path d="M200 307.2C193.2 307.2 188 305.6 188 298.8V288H184V300C184 306.8 189.2 312 196 312H200V307.2Z" fill="#825012"/>
<path d="M226 372C242.569 372 256 358.569 256 342C256 325.431 242.569 312 226 312C209.431 312 196 325.431 196 342C196 358.569 209.431 372 226 372Z" fill="#539B00"/>
<path d="M244 352C257.255 352 268 341.255 268 328C268 314.745 257.255 304 244 304C230.745 304 220 314.745 220 328C220 341.255 230.745 352 244 352Z" fill="#539B00"/>
<path d="M224 339.2C230.8 339.2 236 337.6 236 330.8V320H240V332C240 338.8 234.8 344 228 344H224V339.2Z" fill="#825012"/>
<path d="M196 277.6H200V316H196V277.6Z" fill="#825012"/>
<path d="M232 320C249.673 320 264 305.673 264 288C264 270.327 249.673 256 232 256C214.327 256 200 270.327 200 288C200 305.673 214.327 320 232 320Z" fill="#539B00"/>
<path d="M212 284C229.673 284 244 269.673 244 252C244 234.327 229.673 220 212 220C194.327 220 180 234.327 180 252C180 269.673 194.327 284 212 284Z" fill="#539B00"/>
<path opacity="0.2" d="M214 284C222.8 284 230.4 289.2 233.6 296.4C234.8 296 236.4 296 238 296C245.2 296 251.6 299.6 255.6 304.8C254 297.6 247.6 292 240 292H239.6C237.6 282.8 229.6 276 220 276C212 276 205.2 280.8 202 287.6C205.2 285.2 209.6 284 214 284Z" fill="white"/>
<path d="M176 296C183.953 296 190.4 289.553 190.4 281.6C190.4 273.647 183.953 267.2 176 267.2C168.047 267.2 161.6 273.647 161.6 281.6C161.6 289.553 168.047 296 176 296Z" fill="#539B00"/>
<path opacity="0.2" d="M176 282C176 272 182.8 263.6 192 260.8C192.8 249.2 202 240 214 240C220.8 240 227.2 243.2 231.2 248.4C228.8 238.8 220 232 210 232C198.4 232 188.8 240.8 188 252.4C178.8 254.4 172 262.4 172 272C172 276.4 173.6 280.8 176 284V282Z" fill="white"/>
<path d="M197.2 380.4C217.745 380.4 234.4 363.745 234.4 343.2C234.4 322.655 217.745 306 197.2 306C176.655 306 160 322.655 160 343.2C160 363.745 176.655 380.4 197.2 380.4Z" fill="#539B00"/>
<path d="M245.2 332.4C252.49 332.4 258.4 326.49 258.4 319.2C258.4 311.91 252.49 306 245.2 306C237.91 306 232 311.91 232 319.2C232 326.49 237.91 332.4 245.2 332.4Z" fill="#539B00"/>
<path opacity="0.3" d="M268 328C268 326.4 268 324.8 267.6 323.2C265.2 338.4 252 350 236 350H234.4C237.2 351.2 240.8 352 244 352C246.8 352 249.2 351.6 251.6 350.8C246 356.4 238.4 360 230 360C226 360 222 359.2 218.4 357.6C212 364 202.8 368 193.2 368C179.2 368 166.8 360 160.8 348.8C163.6 366.4 178.8 380 197.2 380C206 380 214.4 376.8 220.8 371.6C222.4 372 224 372 226 372C240 372 252 362.4 255.2 349.2C262.8 345.2 268 337.2 268 328Z" fill="black"/>
<path opacity="0.2" d="M186 324C189.2 324 192 324.4 194.8 325.6C198.4 320 204.8 316 212 316C216 316 219.6 317.2 222.8 319.2C220 312.4 213.6 308 206 308C199.6 308 194 311.2 190.8 316H188C176.4 316 166.4 324.4 164.4 335.6C169.2 328.4 177.2 324 186 324Z" fill="white"/>
<path opacity="0.3" d="M168 326C160.4 322.8 154.4 316.4 152.4 308C152 310 151.6 312 151.6 314C151.6 323.6 156.8 331.6 164.4 336.4C165.2 332.8 166.4 329.2 168 326Z" fill="black"/>
<path opacity="0.3" d="M406 412C422.569 412 436 404.837 436 396C436 387.163 422.569 380 406 380C389.431 380 376 387.163 376 396C376 404.837 389.431 412 406 412Z" fill="black"/>
<path d="M412 300V396C412 398.4 409.2 400 406 400C402.8 400 400 398.4 400 396V300H412Z" fill="#825012"/>
<path d="M442 320C456.359 320 468 308.359 468 294C468 279.641 456.359 268 442 268C427.641 268 416 279.641 416 294C416 308.359 427.641 320 442 320Z" fill="#539B00"/>
<path d="M428 296C447.882 296 464 279.882 464 260C464 240.118 447.882 224 428 224C408.118 224 392 240.118 392 260C392 279.882 408.118 296 428 296Z" fill="#539B00"/>
<path d="M404 349.6C393.6 349.6 392 346 392 336V304H388V344C388 350.8 393.2 356 400 356H404V349.6Z" fill="#825012"/>
<path d="M408 355.2C414.8 355.2 420 353.6 420 346.8V308H424V348C424 354.8 418.8 360 412 360H408V355.2Z" fill="#825012"/>
<path d="M392 343.2C385.2 343.2 384 338 384 334.8V296H380V336C380 342.8 385.2 348 392 348V343.2Z" fill="#825012"/>
<path d="M388 336C407.882 336 424 319.882 424 300C424 280.118 407.882 264 388 264C368.118 264 352 280.118 352 300C352 319.882 368.118 336 388 336Z" fill="#539B00"/>
<path d="M368 308C381.255 308 392 297.255 392 284C392 270.745 381.255 260 368 260C354.745 260 344 270.745 344 284C344 297.255 354.745 308 368 308Z" fill="#539B00"/>
<path d="M388 299.2C381.2 299.2 376 297.6 376 290.8V280H372V292C372 298.8 377.2 304 384 304H388V299.2Z" fill="#825012"/>
<path d="M384 284C401.673 284 416 269.673 416 252C416 234.327 401.673 220 384 220C366.327 220 352 234.327 352 252C352 269.673 366.327 284 384 284Z" fill="#539B00"/>
<path d="M400 268C417.673 268 432 253.673 432 236C432 218.327 417.673 204 400 204C382.327 204 368 218.327 368 236C368 253.673 382.327 268 400 268Z" fill="#539B00"/>
<path d="M426 244C435.941 244 444 235.941 444 226C444 216.059 435.941 208 426 208C416.059 208 408 216.059 408 226C408 235.941 416.059 244 426 244Z" fill="#539B00"/>
<path opacity="0.2" d="M368.4 260C377.2 260 384.8 265.2 388 272.4C389.2 272 390.8 272 392.4 272C399.6 272 406 275.6 410 280.8C408.4 273.6 402 268 394.4 268H394C392 258.8 384 252 374.4 252C366.4 252 359.6 256.8 356.4 263.6C359.6 261.2 364 260 368.4 260Z" fill="white"/>
<path d="M400 249.6C400.8 250.4 402 251.2 402.8 252H404V240C402.8 240 401.2 239.6 400 239.2V249.6Z" fill="#825012"/>
<path opacity="0.2" d="M402 220C411.6 220 419.2 227.6 420 236.8C422 236.4 424 236 426 236C436 236 444.4 242.4 447.2 251.6C447.6 250 448 248 448 246C448 236 440 228 430 228C428 228 426 228.4 424 229.2C423.6 222 417.6 216 410 216C406 216 402.4 217.6 400 220H402Z" fill="white"/>
<path opacity="0.3" d="M463.6 265.6C456.8 273.2 447.2 278 436.4 278H434C438 282.4 440.4 287.6 440.8 293.6C452.4 289.2 461.6 278.4 463.6 265.6Z" fill="black"/>
<path opacity="0.3" d="M454 306.8C455.2 309.6 455.6 312.8 456 316C462.8 311.6 467.6 304.4 468 296C464.8 301.2 459.6 304.8 454 306.8Z" fill="black"/>
<path opacity="0.3" d="M366.8 260C360.4 254.4 356 246 356 236.4C353.6 240.8 352 246.4 352 252C352 256.4 352.8 260.4 354.4 264.4C358 261.6 362.4 260.4 366.8 260Z" fill="black"/>
<path d="M428 266.4C428 273.2 422.8 274.8 416 274.8V280H420C426.8 280 432 274.8 432 268V260C430.8 260 429.2 259.6 428 259.2V266.4Z" fill="#825012"/>
<path d="M419.2 348.4C439.745 348.4 456.4 331.745 456.4 311.2C456.4 290.655 439.745 274 419.2 274C398.655 274 382 290.655 382 311.2C382 331.745 398.655 348.4 419.2 348.4Z" fill="#539B00"/>
<path opacity="0.2" d="M404 300C408.8 300 413.2 301.2 417.2 303.2C422 298.8 428.8 296 436 296C442.4 296 448.4 298 452.8 301.6C448.4 293.6 439.6 288 430 288C423.6 288 417.6 290.4 413.2 294.4C410.4 292.8 407.6 292 404 292C394.4 292 386.4 298.8 384.4 308C389.6 303.2 396.4 300 404 300Z" fill="white"/>
<path opacity="0.3" d="M423.2 340C408 340 395.2 332 388 320H384.4C370.4 320 358.4 312 352.4 300.4C352.8 320 368.8 336 388.4 336H392C398.8 343.6 408.4 348 419.2 348C433.6 348 445.6 340 452 328.4C444.4 335.6 434 340 423.2 340Z" fill="black"/>
<path opacity="0.3" d="M285.6 436.801L262.8 444.801L279.2 445.601L269.2 452.401L292.4 452.001L306 448.801L303.6 460.001L318 457.601L328.4 448.801L348 455.201L368.8 452.401L362.4 448.401L369.6 446.401L339.6 438.401L285.6 436.801Z" fill="black"/>
<path d="M294.8 350.8C311.6 348.8 319.6 316.4 319.6 316.4C319.6 316.4 323.2 348.4 344.4 356.8C344.8 359.6 336.8 362.4 330 359.2C329.6 365.6 344 375.6 352.4 378C352.8 381.6 344.8 386.4 336.8 384C340.4 391.6 346 398.4 359.2 401.6C353.2 405.2 343.6 402 338 401.6C338 406.8 356.8 411.6 366.4 411.2C364.8 416 355.6 421.2 347.6 420.8C347.6 426.4 366.4 431.2 371.2 432.8C371.6 437.6 358 440.4 348.8 437.6C348.4 443.2 358.4 448.4 363.2 450.8C363.2 455.2 332.8 453.6 327.6 444.8C322 446.8 318 458.8 307.2 458C308.8 454.8 311.6 444.8 306.4 442.4C302 448.8 283.2 453.2 275.6 449.6C277.6 447.6 288.4 446 285.2 438.8C275.6 438.4 262.4 430 262.8 425.6C265.2 427.2 281.2 429.6 281.6 425.6C274.4 425.2 270 419.2 269.6 414.8C272 416 288 418.8 288.4 413.6C282.8 411.6 276 407.6 276.4 402.8C281.2 403.2 291.2 403.2 292 398C286 396 280.4 387.2 280 383.6C284.4 384.8 301.6 384 301.2 380C293.6 379.6 287.6 376.4 288 371.6C297.6 370.8 308 360.8 308 356C305.2 357.6 297.6 356.4 294.8 350.8Z" fill="#28896D"/>
<path opacity="0.2" d="M360 401.601C360 401.601 348 402.001 337.6 392.001C327.2 382.001 324.4 375.601 324.4 375.601C324.4 375.601 322 378.801 313.6 384.001C305.2 389.201 287.6 388.801 287.6 388.801C287.6 388.801 298.8 397.201 314.8 392.401C322.8 390.001 322 388.401 322 388.401C322 388.401 333.2 398.001 337.2 399.601C353.6 405.201 360 401.601 360 401.601Z" fill="white"/>
<path opacity="0.2" d="M293.6 373.2C308 365.6 316.8 359.2 319.6 347.2C318.8 352.8 330.8 368.4 342 376.8C333.6 376 323.2 362 318.4 362.4C317.6 366.8 303.6 372.4 293.6 373.2Z" fill="white"/>
<path opacity="0.2" d="M300.4 352C314.8 344.4 317.2 334.4 320 322C319.2 327.6 326.4 345.6 337.6 354C329.2 353.2 322 341.2 318.8 338.4C317.6 342.8 310 351.2 300.4 352Z" fill="white"/>
<path opacity="0.2" d="M279.2 404.8C279.2 404.8 296.8 404.4 310.4 398C314.4 397.6 320.4 410.4 323.6 411.2C326.8 410.4 328.8 409.6 332 407.2C334.8 419.6 356.4 430 368.4 433.6C346.4 433.6 330.4 419.2 328 414.8C325.2 416.8 324.8 423.2 319.6 423.2C315.6 417.2 309.2 408.8 307.6 404.4C303.6 403.2 286 408.8 279.2 404.8Z" fill="white"/>
<path opacity="0.2" d="M268.4 429.2C293.2 432 302.4 420.4 306.4 416C304 433.2 276 438 268.4 429.2Z" fill="white"/>
<path opacity="0.2" d="M334.4 426C341.6 437.6 344 444.4 360.4 449.6C334 451.2 331.2 431.2 334.4 426Z" fill="white"/>
<path opacity="0.2" d="M310.8 454.4C312.4 455.2 327.6 430.8 316.4 426.4C310 429.6 315.6 442.4 310.8 454.4Z" fill="white"/>
<path opacity="0.3" d="M328.4 354.001L322 348.801C322 348.801 327.2 355.201 330.4 359.201C337.2 362.401 345.2 359.601 344.8 356.801C344.8 356.401 334.8 359.201 328.4 354.001Z" fill="black"/>
<path opacity="0.3" d="M336.8 443.201C328.8 435.201 327.2 422.801 327.2 422.801C327.2 422.801 322.4 439.201 318.8 446.801C316.4 451.601 314 455.601 308 457.201V457.601C319.2 458.401 322.8 446.401 328.4 444.401C333.6 453.201 364 454.801 364 450.401C363.6 450.401 344.8 451.601 336.8 443.201Z" fill="black"/>
<path opacity="0.3" d="M350.4 414.8C342.4 414.4 331.6 399.6 331.6 399.6C331.6 399.6 326 402.4 322.8 400C319.6 397.6 316.8 395.2 316.8 395.2C316.8 395.2 319.6 409.2 324 408.4C328.4 407.6 330.8 406.4 332.4 404.4C334.4 414.8 348 420.8 348 420.8C356 421.2 365.2 416.4 366.8 411.2C367.2 411.2 358.4 415.2 350.4 414.8Z" fill="black"/>
<path opacity="0.3" d="M302 380.401C304.4 380.401 306.8 380.401 308.8 380.001C314.8 379.201 325.2 373.601 325.2 373.601L317.2 374.401L320.4 367.601C320.4 367.601 311.2 375.201 303.2 376.001C295.2 377.201 289.2 372.001 289.2 372.001C288.4 376.801 294.8 379.601 302 380.401Z" fill="black"/>
<path opacity="0.3" d="M288.8 413.601C288.4 418.801 272.4 416.001 270 414.801C281.6 422.401 303.6 413.601 303.6 413.601L293.2 414.001L305.2 408.001C305.2 408.001 278.4 409.601 277.2 402.801C276.4 407.601 283.2 411.601 288.8 413.601Z" fill="black"/>
<path opacity="0.3" d="M300.4 419.201C300.4 419.201 292 421.601 286 421.601C280.4 421.601 270.8 416.401 270 414.801C270.4 419.201 274.8 424.801 282 425.201C295.6 426.401 300.4 419.201 300.4 419.201Z" fill="black"/>
<path opacity="0.3" d="M310.8 444.401C310.8 439.601 309.6 411.601 309.6 411.601C309.6 411.601 308.8 428.401 294 442.801C288.8 447.601 275.6 449.201 275.6 449.201C283.2 452.801 302 448.401 306.4 442.001C310.4 444.001 309.6 450.401 308.4 454.801C309.6 451.601 310.8 447.201 310.8 444.401Z" fill="black"/>
<path opacity="0.3" d="M242 473.6L228 478.8L238 479.2L232 483.2H246L254.4 481.2L253.2 488L261.6 486.4L268 481.2L280 485.2L292.8 483.2L288.8 480.8L293.2 479.6L275.2 474.8L242 473.6Z" fill="black"/>
<path d="M247.6 421.2C258 420 262.8 400 262.8 400C262.8 400 264.8 419.6 278 424.8C278.4 426.8 273.6 428.4 269.2 426.4C268.8 430.4 277.6 436.4 282.8 438C282.8 440 278 443.2 273.2 441.6C275.2 446.4 278.8 450.4 286.8 452.4C283.2 454.4 277.2 452.4 273.6 452.4C273.6 455.6 285.2 458.4 291.2 458.4C290 461.6 284.4 464.4 279.6 464.4C279.6 468 291.2 470.8 294 471.6C294.4 474.4 286 476.4 280.4 474.4C280.4 478 286.4 480.8 289.2 482.4C289.2 485.2 270.4 484.4 267.6 478.8C264 480 262 487.6 255.2 486.8C256 484.8 258 478.8 254.8 477.2C252 481.2 240.8 483.6 236 481.6C237.2 480.4 244 479.6 242 475.2C236 475.2 228 469.6 228.4 467.2C230 468.4 239.6 469.6 240 467.2C235.6 466.8 232.8 463.2 232.8 460.8C234.4 461.6 244 463.2 244.4 460C240.8 458.8 236.8 456.4 237.2 453.6C240 454 246.4 453.6 246.8 450.8C243.2 449.6 239.6 444 239.6 442C242.4 442.8 252.8 442 252.8 440C248.4 439.6 244.4 438 244.8 434.8C250.8 434.4 257.2 428 257.2 425.2C254 425.2 249.2 424.4 247.6 421.2Z" fill="#28896D"/>
<path opacity="0.2" d="M287.6 452.4C287.6 452.4 280 452.8 274 446.4C267.6 440.4 266 436.4 266 436.4C266 436.4 264.4 438.4 259.6 441.6C254.4 444.8 243.6 444.4 243.6 444.4C243.6 444.4 250.4 449.6 260.4 446.4C265.2 444.8 264.8 444 264.8 444C264.8 444 271.6 450 274.4 450.8C283.6 454.4 287.6 452.4 287.6 452.4Z" fill="white"/>
<path opacity="0.2" d="M246.8 434.8C255.6 430 260.8 426.4 262.8 418.8C262.4 422.4 269.6 432 276.4 436.8C271.2 436.4 264.8 427.6 262 428C261.6 430.8 252.8 434.4 246.8 434.8Z" fill="white"/>
<path opacity="0.2" d="M250.8 422C259.6 417.2 260.8 411.2 262.8 403.6C262.4 407.2 266.8 418 273.6 423.2C268.4 422.8 264 415.6 262 413.6C261.6 416.4 256.8 421.2 250.8 422Z" fill="white"/>
<path opacity="0.2" d="M238 454.4C238 454.4 248.8 454.4 257.2 450.4C259.6 450.4 263.2 458 265.2 458.4C267.2 458 268.4 457.2 270.4 456C272 463.6 285.2 470 292.8 472C279.2 472 269.6 463.2 268 460.4C266.4 461.6 266 465.6 262.8 465.6C260.4 462 256.4 456.8 255.6 454C252.8 453.2 242 456.8 238 454.4Z" fill="white"/>
<path opacity="0.2" d="M231.6 469.2C246.8 470.8 252.4 464 254.8 461.2C253.2 471.6 236 474.4 231.6 469.2Z" fill="white"/>
<path opacity="0.2" d="M271.6 467.2C276 474.4 277.6 478.4 287.6 481.6C271.6 482.4 270 470.4 271.6 467.2Z" fill="white"/>
<path opacity="0.2" d="M257.2 484.4C258 484.8 267.6 470 260.4 467.2C256.8 469.6 260.4 477.2 257.2 484.4Z" fill="white"/>
<path opacity="0.3" d="M268 423.2L264 420C264 420 267.2 424 269.2 426.4C273.2 428.4 278 426.8 278 424.8C278 424.8 272 426 268 423.2Z" fill="black"/>
<path opacity="0.3" d="M273.2 478C268.4 473.2 267.2 465.6 267.2 465.6C267.2 465.6 264.4 475.6 262 480.4C260.4 483.2 259.2 485.6 255.2 486.8V487.2C262 487.6 264.4 480.4 267.6 479.2C270.8 484.8 289.2 485.6 289.2 482.8C289.6 482 278 482.8 273.2 478Z" fill="black"/>
<path opacity="0.3" d="M281.6 460.4C276.8 460 270 451.2 270 451.2C270 451.2 266.8 452.8 264.8 451.6C262.8 450.4 261.2 448.8 261.2 448.8C261.2 448.8 262.8 457.2 265.6 456.8C268.4 456.4 269.6 455.6 270.8 454.4C272 460.8 280.4 464.4 280.4 464.4C285.2 464.8 290.8 461.6 292 458.4C292 458 286.4 460.4 281.6 460.4Z" fill="black"/>
<path opacity="0.3" d="M252 439.2C253.6 439.2 254.8 439.2 256.4 438.8C260 438.4 266.4 434.8 266.4 434.8L261.6 435.2L263.6 430.8C263.6 430.8 258 435.2 253.2 436C248.4 436.8 244.4 433.6 244.4 433.6C243.6 437.2 247.6 438.8 252 439.2Z" fill="black"/>
<path opacity="0.3" d="M244 459.6C243.6 462.8 234 461.2 232.4 460.4C239.6 465.2 253.2 459.6 253.2 459.6H246.8L254.4 456C254.4 456 238 456.8 237.2 452.8C236.4 456 240.4 458.4 244 459.6Z" fill="black"/>
<path opacity="0.3" d="M250.8 463.2C250.8 463.2 245.6 464.8 242 464.8C238.8 464.8 232.4 461.6 232.4 460.8C232.8 463.6 235.2 466.8 239.6 467.2C248 467.6 250.8 463.2 250.8 463.2Z" fill="black"/>
<path opacity="0.3" d="M257.6 478.4C257.6 475.6 256.8 458.4 256.8 458.4C256.8 458.4 256.4 468.4 247.2 477.6C244 480.4 236 481.6 236 481.6C240.8 483.6 252 481.2 254.8 477.2C257.2 478.4 256.8 482.4 256 484.8C256.8 482.8 257.6 480.4 257.6 478.4Z" fill="black"/>
</svg>
